<svg width="256" height="256" viewBox="0 0 256 256" fill="none" xmlns="http://www.w3.org/2000/svg">
<rect width="256" height="256" fill="#1778D0"/>
<path fill-rule="evenodd" clip-rule="evenodd" d="M28.8 139.909C28.8 121.317 36.9059 95.1068 53.5863 78.3139C70.2666 61.5211 113.801 52.3273 150.63 71.5991C187.46 90.871 212.082 71.5991 225.331 67.2235C233.229 92.8641 231.417 112.117 220.249 127.986C209.081 143.856 167.653 159.376 121.666 134.481C93.9477 119.476 63.7899 104.104 28.8 139.909Z" fill="#F0F8FF"/>
<path fill-rule="evenodd" clip-rule="evenodd" d="M30.7627 190.674C27.7967 177.829 27.1263 164.226 36.5076 152.219C49.6549 135.877 82.5065 130.383 102.351 143.492C122.196 156.601 142.125 164.312 148.307 164.312C149.868 177.433 134.933 194.965 123.373 197.296C111.813 199.627 99.7488 198.337 85.8022 192.748C71.8557 187.158 61.2567 169.259 30.7627 190.674Z" fill="#F0F8FF"/>
</svg>
